<svg width="712" height="759" viewBox="0 0 712 759" fill="none" xmlns="http://www.w3.org/2000/svg">
<rect width="712" height="759" rx="73" fill="url(#paint0_linear_18_2)"/>
<path d="M307.853 569.279H302.142C301.979 568.342 301.679 567.513 301.241 566.79C300.803 566.057 300.258 565.436 299.607 564.927C298.955 564.418 298.212 564.036 297.377 563.782C296.553 563.517 295.662 563.385 294.705 563.385C293.005 563.385 291.499 563.812 290.185 564.667C288.872 565.512 287.844 566.754 287.101 568.393C286.358 570.022 285.986 572.012 285.986 574.364C285.986 576.756 286.358 578.772 287.101 580.411C287.854 582.039 288.882 583.271 290.185 584.106C291.499 584.93 293 585.343 294.69 585.343C295.627 585.343 296.502 585.221 297.316 584.976C298.141 584.722 298.879 584.35 299.531 583.862C300.192 583.373 300.747 582.772 301.195 582.06C301.653 581.347 301.969 580.533 302.142 579.616L307.853 579.647C307.639 581.133 307.176 582.528 306.463 583.831C305.761 585.134 304.839 586.284 303.699 587.282C302.559 588.269 301.225 589.043 299.699 589.603C298.172 590.153 296.477 590.428 294.614 590.428C291.865 590.428 289.412 589.791 287.254 588.519C285.095 587.246 283.395 585.409 282.153 583.006C280.911 580.604 280.29 577.723 280.29 574.364C280.29 570.994 280.917 568.113 282.169 565.721C283.421 563.318 285.126 561.481 287.284 560.208C289.442 558.936 291.885 558.3 294.614 558.3C296.354 558.3 297.973 558.544 299.469 559.033C300.966 559.521 302.299 560.239 303.47 561.186C304.641 562.122 305.603 563.273 306.356 564.637C307.12 565.991 307.618 567.538 307.853 569.279ZM321.334 558.727V590H315.806V558.727H321.334ZM336.777 590.473C335.291 590.473 333.953 590.209 332.761 589.679C331.581 589.14 330.644 588.346 329.952 587.297C329.27 586.249 328.929 584.956 328.929 583.419C328.929 582.095 329.173 581.001 329.662 580.136C330.15 579.27 330.817 578.578 331.662 578.059C332.507 577.54 333.459 577.148 334.518 576.883C335.586 576.608 336.691 576.41 337.831 576.288C339.205 576.145 340.32 576.018 341.175 575.906C342.03 575.784 342.651 575.6 343.038 575.356C343.435 575.102 343.634 574.71 343.634 574.18V574.089C343.634 572.938 343.293 572.048 342.611 571.417C341.928 570.785 340.946 570.47 339.663 570.47C338.31 570.47 337.236 570.765 336.442 571.355C335.658 571.946 335.128 572.643 334.853 573.447L329.692 572.714C330.099 571.289 330.771 570.098 331.708 569.141C332.644 568.174 333.79 567.451 335.144 566.973C336.498 566.484 337.994 566.24 339.633 566.24C340.763 566.24 341.888 566.372 343.008 566.637C344.127 566.902 345.15 567.339 346.077 567.95C347.003 568.551 347.746 569.37 348.306 570.409C348.876 571.447 349.161 572.745 349.161 574.303V590H343.847V586.778H343.664C343.328 587.43 342.855 588.04 342.244 588.61C341.643 589.17 340.885 589.623 339.969 589.969C339.063 590.305 337.999 590.473 336.777 590.473ZM338.213 586.412C339.322 586.412 340.284 586.193 341.099 585.755C341.913 585.307 342.539 584.717 342.977 583.984C343.425 583.251 343.649 582.452 343.649 581.586V578.822C343.476 578.965 343.181 579.097 342.763 579.219C342.356 579.342 341.898 579.449 341.389 579.54C340.88 579.632 340.376 579.713 339.877 579.784C339.378 579.856 338.946 579.917 338.579 579.968C337.755 580.08 337.017 580.263 336.365 580.517C335.714 580.772 335.2 581.128 334.823 581.586C334.446 582.034 334.258 582.614 334.258 583.327C334.258 584.345 334.629 585.114 335.373 585.633C336.116 586.152 337.062 586.412 338.213 586.412ZM357.73 590V566.545H363.089V570.455H363.334C363.761 569.101 364.494 568.057 365.532 567.324C366.581 566.581 367.777 566.21 369.121 566.21C369.426 566.21 369.767 566.225 370.144 566.255C370.531 566.276 370.851 566.311 371.106 566.362V571.447C370.872 571.366 370.5 571.294 369.991 571.233C369.492 571.162 369.009 571.126 368.541 571.126C367.533 571.126 366.627 571.345 365.823 571.783C365.029 572.211 364.403 572.806 363.944 573.57C363.486 574.333 363.257 575.214 363.257 576.211V590H357.73ZM377.788 590V566.545H383.316V590H377.788ZM380.568 563.217C379.692 563.217 378.939 562.926 378.308 562.346C377.676 561.756 377.361 561.048 377.361 560.224C377.361 559.389 377.676 558.681 378.308 558.101C378.939 557.511 379.692 557.216 380.568 557.216C381.453 557.216 382.206 557.511 382.827 558.101C383.459 558.681 383.774 559.389 383.774 560.224C383.774 561.048 383.459 561.756 382.827 562.346C382.206 562.926 381.453 563.217 380.568 563.217ZM403.722 566.545V570.821H390.239V566.545H403.722ZM393.568 560.926H399.096V582.945C399.096 583.688 399.208 584.259 399.431 584.656C399.666 585.042 399.971 585.307 400.348 585.45C400.724 585.592 401.142 585.663 401.6 585.663C401.946 585.663 402.262 585.638 402.547 585.587C402.842 585.536 403.066 585.49 403.218 585.45L404.15 589.771C403.855 589.873 403.432 589.985 402.882 590.107C402.343 590.229 401.681 590.3 400.897 590.321C399.513 590.361 398.266 590.153 397.156 589.695C396.047 589.226 395.166 588.504 394.515 587.526C393.873 586.549 393.558 585.327 393.568 583.862V560.926ZM414.791 598.795C414.038 598.795 413.34 598.734 412.699 598.612C412.068 598.5 411.564 598.368 411.187 598.215L412.47 593.909C413.274 594.143 413.992 594.255 414.623 594.245C415.254 594.235 415.809 594.036 416.287 593.65C416.776 593.273 417.188 592.642 417.524 591.756L417.998 590.489L409.492 566.545H415.356L420.762 584.259H421.006L426.427 566.545H432.306L422.915 592.84C422.477 594.082 421.897 595.146 421.174 596.032C420.451 596.927 419.565 597.609 418.517 598.078C417.478 598.556 416.237 598.795 414.791 598.795Z" fill="white"/>
<path d="M458.51 184.745H252.489C248.566 184.745 245.385 187.926 245.385 191.849V238.026C245.385 241.95 248.566 245.13 252.489 245.13H458.51C462.434 245.13 465.614 241.95 465.614 238.026V191.849C465.614 187.926 462.434 184.745 458.51 184.745Z" stroke="white" stroke-width="3" stroke-linecap="round" stroke-linejoin="round"/>
<path d="M458.51 272.659H252.489C248.566 272.659 245.385 275.84 245.385 279.763V325.94C245.385 329.864 248.566 333.044 252.489 333.044H458.51C462.434 333.044 465.614 329.864 465.614 325.94V279.763C465.614 275.84 462.434 272.659 458.51 272.659Z" stroke="white" stroke-width="3" stroke-linecap="round" stroke-linejoin="round"/>
<path d="M458.51 360.573H252.489C248.566 360.573 245.385 363.754 245.385 367.677V452.927C245.385 456.851 248.566 460.031 252.489 460.031H458.51C462.434 460.031 465.614 456.851 465.614 452.927V367.677C465.614 363.754 462.434 360.573 458.51 360.573Z" stroke="white" stroke-width="3" stroke-linecap="round" stroke-linejoin="round"/>
<path d="M431.87 227.37C438.736 227.37 444.302 221.804 444.302 214.937C444.302 208.071 438.736 202.505 431.87 202.505C425.004 202.505 419.438 208.071 419.438 214.937C419.438 221.804 425.004 227.37 431.87 227.37Z" stroke="white" stroke-width="2" stroke-linecap="round" stroke-linejoin="round"/>
<path d="M431.87 315.284C438.736 315.284 444.302 309.718 444.302 302.851C444.302 295.985 438.736 290.419 431.87 290.419C425.004 290.419 419.438 295.985 419.438 302.851C419.438 309.718 425.004 315.284 431.87 315.284Z" stroke="white" stroke-width="2" stroke-linecap="round" stroke-linejoin="round"/>
<path d="M431.87 403.198C438.736 403.198 444.302 397.632 444.302 390.766C444.302 383.899 438.736 378.333 431.87 378.333C425.004 378.333 419.438 383.899 419.438 390.766C419.438 397.632 425.004 403.198 431.87 403.198Z" stroke="white" stroke-width="2" stroke-linecap="round" stroke-linejoin="round"/>
<defs>
<linearGradient id="paint0_linear_18_2" x1="356" y1="2.81841e-07" x2="365" y2="1210.5" gradientUnits="userSpaceOnUse">
<stop stop-color="#172554"/>
<stop offset="0.584" stop-color="#134E4A"/>
</linearGradient>
</defs>
</svg>
