<svg width="712" height="759" viewBox="0 0 712 759" fill="none" xmlns="http://www.w3.org/2000/svg">
<rect width="712" height="759" rx="73" fill="url(#paint0_linear_12_2)"/>
<g clip-path="url(#clip0_12_2)">
<path d="M291.815 293.98V255.163C291.815 246.672 298.487 240 306.978 240C315.47 240 322.141 246.672 322.141 255.163V293.98C322.141 302.472 315.47 309.143 306.978 309.143C298.487 309.143 291.815 302.472 291.815 293.98ZM404.022 309.143C412.513 309.143 419.185 302.472 419.185 293.98V255.163C419.185 246.672 412.513 240 404.022 240C395.53 240 388.859 246.672 388.859 255.163V293.98C388.859 302.472 395.53 309.143 404.022 309.143ZM301.52 361.304H409.177C415.849 361.304 421.308 355.846 421.308 349.174C421.308 342.502 415.849 337.043 409.177 337.043H301.52C294.848 337.043 289.389 342.502 289.389 349.174C289.389 355.846 294.848 361.304 301.52 361.304ZM470.739 261.228H445.568C438.897 261.228 433.438 266.687 433.438 273.359C433.438 280.03 438.897 285.489 445.568 285.489H458.609V491.707H252.391V285.489H265.431C272.103 285.489 277.562 280.03 277.562 273.359C277.562 266.687 272.103 261.228 265.431 261.228H240.261C233.589 261.228 228.13 267.9 228.13 274.572V503.837C228.13 510.509 233.589 515.967 240.261 515.967H470.739C477.411 515.967 482.87 510.509 482.87 503.837V274.572C482.87 267.9 477.411 261.228 470.739 261.228ZM345.492 285.489H365.508C372.179 285.489 377.638 280.03 377.638 273.359C377.638 266.687 372.179 261.228 365.508 261.228H345.492C338.821 261.228 333.362 266.687 333.362 273.359C333.362 280.03 338.821 285.489 345.492 285.489ZM301.52 415.891H409.177C415.849 415.891 421.308 410.433 421.308 403.761C421.308 397.089 415.849 391.63 409.177 391.63H301.52C294.848 391.63 289.389 397.089 289.389 403.761C289.389 410.433 294.848 415.891 301.52 415.891Z" fill="white"/>
</g>
<defs>
<linearGradient id="paint0_linear_12_2" x1="356" y1="2.81841e-07" x2="365" y2="1210.5" gradientUnits="userSpaceOnUse">
<stop stop-color="#3A2222"/>
<stop offset="1"/>
</linearGradient>
<clipPath id="clip0_12_2">
<rect width="279" height="279" fill="white" transform="translate(216 240)"/>
</clipPath>
</defs>
</svg>
